<svg xmlns="http://www.w3.org/2000/svg" width="128" height="128" version="1.0" viewBox="0 0 96 96"><path d="M19.3 11.5c-.3.9.2 2.4 1.1 3.4.9 1 1.6 3.1 1.6 4.8 0 2.9-.2 3-4.1 3-5.1 0-9 2.8-10.6 7.7C4.7 37.9 10 44 25.7 51.6c6.6 3.2 10 5.5 12.3 8.4 3.1 4 3.2 4 9.9 4s6.8-.1 10-4c2.2-2.8 5.8-5.2 12.4-8.4C86 44 91.3 37.9 88.7 30.4c-1.6-4.9-5.5-7.7-10.6-7.7-3.9 0-4.1-.1-4.1-3 0-1.7.7-3.8 1.6-4.8.9-1 1.4-2.5 1.1-3.4-.6-1.3-4.4-1.5-28.7-1.5-24.3 0-28.1.2-28.7 1.5zm1.9 19.2c1.6 1.8 7 14.4 6.4 15-.4.4-9.8-5.6-12.3-8-3.9-3.5-2.5-8.7 2.2-8.7 1.2 0 2.9.8 3.7 1.7zm60.6-.5c1.9 1.9 1.4 5.3-1 7.5-2.6 2.4-12 8.4-12.4 8-.6-.6 4.8-13.2 6.4-15 1.7-2 5.3-2.2 7-.5zM34.6 72.1c-1.7 1.3-2.6 3-2.6 4.9 0 1.6-.7 3-1.6 3.4-.9.3-1.4 1.5-1.2 2.8.3 2.3.4 2.3 18.8 2.3 18.4 0 18.5 0 18.8-2.3.2-1.3-.3-2.5-1.2-2.8-.9-.4-1.6-1.8-1.6-3.4 0-1.9-.9-3.6-2.6-4.9C59.1 70.3 57.3 70 48 70s-11.1.3-13.4 2.1z"/></svg>
