<svg xmlns="http://www.w3.org/2000/svg" xml:space="preserve" viewBox="0 0 1024 432" width="200" height="200">
    <path d="M557.9196 250.8753c-7.8858 8.6082-17.5888 13.6064-28.1435 17.035-6.006 1.951-3.0191 6.6222-3.2407 10.0729-.232 3.614 3.1874 2.6087 5.2916 2.6243 11.9991.0895 24.0003.1365 35.9983-.0044 3.2251-.0379 4.7079.7527 5.0999 4.2862.7576 6.8303.4046 13.6477.3322 20.4572-.0432 4.0635 1.1559 5.5688 5.3699 5.5272 9.7592-.096 9.761.0918 9.754 9.7256 0 .1667 0 .3334-.0003.5-.013 8.2364-.013 8.2514-8.1053 8.253-43.1658.0083-86.3316.0103-129.4975.0095-7.0096 0-7.0744-.0715-7.1142-6.8556-.0108-1.8332-.0167-3.6668.003-5.4999.0771-7.177.6216-7.6439 7.3767-6.3768 4.503.8446 6.356-.4505 6.4776-5.0575.1715-6.4954.2434-13.0063-.0176-19.4955-.1641-4.0811 1.1734-5.5587 5.3715-5.4886 12.8294.2142 25.6649.0934 38.4978.0481 2.226-.0078 5.4622.5806 5.1412-2.9158-.3126-3.4048 2.8793-8.0635-3.3264-9.9127-12.8632-3.833-24.2612-10.0974-32.2892-21.3396-4.1687-5.8377-7.8314-11.9421-9.6046-18.989-.638-2.5355-2.2248-3.7524-4.7367-4.5063-12.5114-3.755-22.3242-10.8837-28.0118-23.0169-1.7125-3.6532-3.0022-7.3404-2.9893-11.4703.0633-20.166.1903-40.3343-.0662-60.4972-.0639-5.0162 1.7838-6.3279 6.3925-6.1415 6.8219.2758 13.6691-.104 20.4945.126 4.0825.1376 5.647-1.3103 5.6095-5.4597-.0629-6.979.135-6.9194 7.209-6.918 33.9993.0067 67.999.049 101.9974-.1277 4.3679-.0227 5.9115.9781 5.4086 5.6013-.7305 6.715-.3548 6.8202 6.6866 6.8413 6.8331.0204 13.6672.091 20.499.0039 3.3803-.0431 4.6838 1.3105 4.6666 4.7706-.1058 21.3324.051 42.6662-.0976 63.998-.081 11.6569-11.8147 26.333-24.2923 30.316-4.7608 1.5197-7.9315 3.4823-9.455 8.8048-2.2567 7.8848-7.007 14.6404-12.6892 21.0721m-7.8218 59.857c6.9613-1.1837 2.9242-6.4958 3.5733-9.9354.6633-3.5143-2.1762-3.4193-4.5857-3.4198-22.3116-.0053-44.626.173-66.933-.1485-5.9197-.0853-5.7016 3.0021-5.8531 7.1562-.1637 4.4855.7828 6.5365 5.9505 6.475 22.3085-.2653 44.6219-.112 67.848-.1275m-104.754-156.2081c.003 9.825-.0598 19.6507.0309 29.475.065 7.0527 5.5836 14.2699 11.8882 15.8121.9675-1.5155.6077-3.222.6119-4.8485.0395-15.4869-.1088-30.9762.1406-46.4593.0763-4.7347-1.3374-6.3386-6.2093-6.3513-4.8918-.0126-7.2886 1.1451-6.501 6.3951.2442 1.6288.04 3.3249.0387 5.9769m128.2797 44.3233c6.1181-1.544 10.9207-8.5161 10.9999-16.4167.1132-11.304-.1796-22.6159.1352-33.9123.1343-4.8202-2.0854-5.3773-6.027-5.363-4.001.0145-6.5092.3192-6.4102 5.4939.2896 15.123.0736 30.2557.0773 45.3846.0003 1.4801-.1615 3.0126 1.2248 4.8135z"/>
<style>
path { fill: #000}
@media (prefers-color-scheme: dark){
    path {fill:#FFF;}
}
</style>
</svg>
